<svg preserveAspectRatio="none" width="100%" height="100%" overflow="visible" style="display: block;" viewBox="0 0 88.0503 32" fill="none" xmlns="http://www.w3.org/2000/svg">
<g id="Frame" clip-path="url(#clip0_0_2711)">
<path id="Vector" d="M28.7373 22.0238C28.7373 22.6332 28.496 23.2177 28.0659 23.6495L19.782 31.9671H10.7169L17.8213 24.9203H2.93465C1.31379 24.9203 2.40388e-05 23.6067 0 21.9858V17.8738H18.0204V24.7233L28.7373 14.0937V22.0238ZM18.0204 0L10.916 7.04668H25.8027C27.4235 7.04668 28.7373 8.36037 28.7373 9.98123V14.0933H10.7169V7.2442L0 17.8734V9.94319C0 9.33395 0.241273 8.74939 0.671384 8.3176L8.95529 0H18.0204Z" fill="var(--fill-0, #4100A4)"/>
<path id="Vector_2" d="M45.7733 21.4204H36.6957V19.2626H45.6804C46.102 19.2626 46.4492 19.1261 46.722 18.8533C46.9949 18.5681 47.1312 18.196 47.1312 17.7373C47.1312 17.2784 46.9949 16.9125 46.722 16.6397C46.4492 16.3545 46.102 16.2119 45.6804 16.2119H40.0812C39.7091 16.2119 39.3185 16.1561 38.9092 16.0445C38.5125 15.9329 38.1156 15.7221 37.7188 15.412C37.3343 15.102 37.0429 14.7113 36.8444 14.2401C36.6461 13.7565 36.5469 13.2666 36.5469 12.7705C36.5469 11.7537 36.8754 10.929 37.5327 10.2965C38.2024 9.65166 39.0519 9.32922 40.0812 9.32922H49.2146V11.487H40.1741C39.765 11.487 39.4301 11.6172 39.1697 11.8776C38.9217 12.1381 38.7976 12.4916 38.7976 12.938C38.7976 13.372 38.9217 13.7255 39.1697 13.9983C39.4301 14.2587 39.765 14.3889 40.1741 14.3889H45.7733C46.2818 14.3889 46.7282 14.4633 47.1126 14.6121C47.5095 14.7609 47.8629 14.9594 48.1729 15.2073C48.483 15.4554 48.762 15.8088 49.0101 16.2677C49.258 16.7265 49.3821 17.2721 49.3821 17.9046C49.3821 18.4131 49.3015 18.8596 49.1403 19.244C48.9915 19.6284 48.7868 19.9694 48.5263 20.2671C48.2784 20.5647 47.9187 20.8313 47.4475 21.067C46.9763 21.3025 46.4182 21.4204 45.7733 21.4204Z" fill="var(--fill-0, black)"/>
<path id="Vector_3" d="M57.4689 21.4202H55.2182V11.4869H50.4375V9.3291H62.231V11.4869H57.4689V21.4202Z" fill="var(--fill-0, black)"/>
<path id="Vector_4" d="M72.3254 21.4202H63.75V9.3291H72.3812C73.0633 9.3291 73.6461 9.44692 74.1298 9.68254C74.6259 9.91816 75.0164 10.2654 75.3017 10.7242C75.5994 11.1831 75.7481 11.7535 75.7481 12.4356C75.7481 12.9068 75.6675 13.3347 75.5063 13.7191C75.3575 14.1035 75.1529 14.4012 74.8924 14.612C74.6444 14.8228 74.4026 14.9654 74.167 15.0399C74.725 15.1887 75.1777 15.5297 75.5249 16.063C75.8722 16.5838 76.0457 17.2163 76.0457 17.9603C76.0457 19.0144 75.7109 19.8577 75.0413 20.4901C74.384 21.1102 73.4787 21.4202 72.3254 21.4202ZM72.2324 16.1001H67.2099V14.3516H72.1208C72.5425 14.3516 72.8835 14.2152 73.1439 13.9423C73.4167 13.6695 73.5532 13.3161 73.5532 12.8821C73.5532 12.448 73.4167 12.0946 73.1439 11.8218C72.8835 11.549 72.5425 11.4125 72.1208 11.4125H66.0008V19.3182H72.2138C72.685 19.3182 73.0694 19.1756 73.3671 18.8904C73.6648 18.5928 73.8136 18.2084 73.8136 17.7371C73.8136 17.2535 73.6648 16.8629 73.3671 16.5652C73.0819 16.2552 72.7037 16.1001 72.2324 16.1001Z" fill="var(--fill-0, black)"/>
<path id="Vector_5" d="M88.0241 21.4202H77.7188V9.3291H79.9695V19.2625H88.0241V21.4202Z" fill="var(--fill-0, black)"/>
</g>
<defs>
<clipPath id="clip0_0_2711">
<rect width="88.0503" height="32" fill="white"/>
</clipPath>
</defs>
</svg>
